<svg width="42" height="39" viewBox="0 0 42 39" fill="none" xmlns="http://www.w3.org/2000/svg">
<g id="Iconly/Light-outline/Close Square">
<g id="Close Square">
<path id="Close Square_2" fill-rule="evenodd" clip-rule="evenodd" d="M28.0119 3.23465H13.1455C7.31903 3.23465 3.43063 7.16855 3.43063 12.8018V26.0108C3.43063 31.6493 7.30864 35.5779 13.1455 35.5779H28.0102C33.8488 35.5779 37.7285 31.6493 37.7285 26.0108V12.8018C37.7285 7.16355 33.8491 3.23465 28.0119 3.23465ZM13.1455 5.66039H28.0119C32.3858 5.66039 35.1562 8.46611 35.1562 12.8018V26.0108C35.1562 30.3466 32.3856 33.1522 28.0102 33.1522H13.1455C8.77212 33.1522 6.00297 30.3469 6.00297 26.0108V12.8018C6.00297 8.47162 8.78169 5.66039 13.1455 5.66039ZM15.5553 14.6554C16.012 14.2248 16.7265 14.1858 17.23 14.5381L17.3742 14.6556L20.5772 17.6766L23.7773 14.6589C24.2796 14.1852 25.0939 14.1852 25.5962 14.6589C26.0528 15.0895 26.0943 15.7633 25.7207 16.2381L25.5962 16.3741L22.3959 19.392L25.5989 22.4131C26.1011 22.8868 26.101 23.6548 25.5987 24.1284C25.142 24.5589 24.4275 24.598 23.924 24.2456L23.7798 24.1282L20.577 21.1073L17.3784 24.1236C16.8762 24.5972 16.0618 24.5972 15.5595 24.1236C15.1029 23.693 15.0614 23.0192 15.435 22.5444L15.5595 22.4083L18.7583 19.3919L15.5551 16.3707C15.0529 15.897 15.053 15.129 15.5553 14.6554Z" fill="#2784FF"/>
</g>
</g>
</svg>
