<svg width="44" height="41" viewBox="0 0 44 41" fill="none" xmlns="http://www.w3.org/2000/svg">
<g id="Iconly/Light-outline/Edit Square">
<g id="Edit Square">
<path id="Edit Square_2" fill-rule="evenodd" clip-rule="evenodd" d="M14.8305 17.4755L28.1345 4.95066C30.3131 2.90178 33.844 2.90178 36.0227 4.95066L38.1897 6.99076C40.3685 9.04203 40.3685 12.3689 38.1897 14.418L24.8222 27.0027C23.847 27.9208 22.5246 28.4368 21.1455 28.4368H14.4769C13.7265 28.4368 13.1235 27.8548 13.1421 27.1486L13.3095 20.8131C13.343 19.5584 13.8874 18.3634 14.8305 17.4755ZM36.3015 8.76839L34.1355 6.72924C32.9994 5.66084 31.1577 5.66084 30.0221 6.72876L28.9277 7.75907L35.2071 13.6707L36.302 12.6399C37.4374 11.5722 37.4374 9.83775 36.3015 8.76839ZM33.3189 15.4483L27.0396 9.53668L16.7187 19.2531C16.26 19.685 15.9953 20.2662 15.9789 20.876L15.8444 25.9214L21.1455 25.9229C21.7324 25.9229 22.2982 25.7307 22.7484 25.3834L22.934 25.2251L33.3189 15.4483ZM20.518 3.47922C21.2554 3.47922 21.8531 4.04199 21.8531 4.73619C21.8531 5.37254 21.3508 5.89844 20.6992 5.98168L20.518 5.99315H13.8618C9.37297 5.99315 6.46542 8.79653 6.29827 13.15L6.29066 13.55V27.4839C6.29066 31.9361 9.05682 34.8646 13.4573 35.0331L13.8618 35.0407H29.5703C34.0703 35.0407 36.969 32.2434 37.1356 27.8844L37.1432 27.4839V20.7331C37.1432 20.0389 37.741 19.4762 38.4784 19.4762C39.1543 19.4762 39.7129 19.949 39.8013 20.5626L39.8135 20.7331V27.4839C39.8135 33.2862 35.9095 37.3658 29.9867 37.5483L29.5703 37.5547H13.8618C7.84767 37.5547 3.80722 33.6066 3.62667 27.8858L3.62036 27.4839V13.55C3.62036 7.75338 7.53442 3.6683 13.4462 3.48561L13.8618 3.47922H20.518Z" fill="#2784FF"/>
</g>
</g>
</svg>
