<svg width="64" height="64" viewBox="0 0 64 64" fill="none" xmlns="http://www.w3.org/2000/svg">
<g id="Iconly/Light-outline/Plus">
<g id="Plus">
<path id="Plus_2" fill-rule="evenodd" clip-rule="evenodd" d="M43.6235 5.33334H20.3765C11.3489 5.33334 5.33331 11.7864 5.33331 21.0485V42.9516C5.33331 52.2223 11.3331 58.6667 20.3765 58.6667H43.6235C52.6669 58.6667 58.6667 52.2223 58.6667 42.9516V21.0485C58.6667 11.7777 52.6669 5.33334 43.6235 5.33334ZM20.3765 9.05428H43.6235C50.5501 9.05428 54.9457 13.7757 54.9457 21.0485V42.9516C54.9457 50.2244 50.5501 54.9458 43.6235 54.9458H20.3765C13.4499 54.9458 9.05424 50.2244 9.05424 42.9516V21.0485C9.05424 13.7853 13.4646 9.05428 20.3765 9.05428ZM32 21.029C32.9419 21.029 33.7203 21.7289 33.8435 22.637L33.8605 22.8895V30.116H41.0956C42.1231 30.116 42.956 30.9489 42.956 31.9764C42.956 32.9183 42.2561 33.6967 41.348 33.8199L41.0956 33.8369H33.8605V41.0634C33.8605 42.0909 33.0275 42.9238 32 42.9238C31.0581 42.9238 30.2797 42.2239 30.1565 41.3158L30.1395 41.0634V33.8369H22.9043C21.8768 33.8369 21.0439 33.0039 21.0439 31.9764C21.0439 31.0345 21.7438 30.2561 22.6519 30.1329L22.9043 30.116H30.1395V22.8895C30.1395 21.862 30.9725 21.029 32 21.029Z" fill="#2784FF"/>
</g>
</g>
</svg>
