<svg width="38" height="36" viewBox="0 0 38 36" fill="none" xmlns="http://www.w3.org/2000/svg">
<g id="Iconly/Light-outline/Close Square">
<g id="Close Square">
<path id="Close Square_2" fill-rule="evenodd" clip-rule="evenodd" d="M25.8532 3.00031H12.1324C6.75499 3.00031 3.16626 6.6492 3.16626 11.8743V24.1263C3.16626 29.3563 6.7454 33.0003 12.1324 33.0003H25.8516C31.2402 33.0003 34.8209 29.3563 34.8209 24.1263V11.8743C34.8209 6.64456 31.2404 3.00031 25.8532 3.00031ZM12.1324 5.25031H25.8532C29.8899 5.25031 32.4468 7.85275 32.4468 11.8743V24.1263C32.4468 28.148 29.8897 30.7503 25.8516 30.7503H12.1324C8.09609 30.7503 5.54036 28.1483 5.54036 24.1263V11.8743C5.54036 7.85786 8.10492 5.25031 12.1324 5.25031ZM14.3565 13.5936C14.778 13.1943 15.4375 13.158 15.9022 13.4849L16.0353 13.5938L18.9914 16.396L21.9449 13.5969C22.4084 13.1575 23.16 13.1575 23.6236 13.5969C24.045 13.9963 24.0833 14.6213 23.7385 15.0617L23.6236 15.1878L20.6699 17.9871L23.6261 20.7893C24.0896 21.2287 24.0895 21.941 23.6259 22.3803C23.2044 22.7796 22.5449 22.8159 22.0803 22.4891L21.9471 22.3801L18.9912 19.5781L16.0391 22.3758C15.5756 22.8152 14.824 22.8152 14.3604 22.3758C13.939 21.9764 13.9007 21.3515 14.2455 20.911L14.3604 20.7849L17.3126 17.9869L14.3564 15.1846C13.8928 14.7452 13.8929 14.0329 14.3565 13.5936Z" fill="white"/>
</g>
</g>
</svg>
