<svg width="41" height="38" viewBox="0 0 41 38" fill="none" xmlns="http://www.w3.org/2000/svg">
<g id="Iconly/Light-outline/Edit Square">
<g id="Edit Square">
<path id="Edit Square_2" fill-rule="evenodd" clip-rule="evenodd" d="M13.6876 16.2094L25.9662 4.592C27.977 2.69156 31.2358 2.69156 33.2465 4.592L35.2465 6.4843C37.2575 8.38695 37.2575 11.4728 35.2465 13.3734L22.9092 25.0464C22.0092 25.8979 20.7887 26.3765 19.5159 26.3765H13.3612C12.6686 26.3765 12.1121 25.8367 12.1293 25.1817L12.2838 19.3052C12.3147 18.1414 12.8171 17.033 13.6876 16.2094ZM33.5039 8.13313L31.5048 6.24172C30.4563 5.25073 28.7565 5.25073 27.7084 6.24127L26.6984 7.19694L32.4938 12.6803L33.5043 11.7242C34.5522 10.7338 34.5522 9.12501 33.5039 8.13313ZM30.7511 14.3291L24.9557 8.84576L15.4303 17.8583C15.0069 18.2588 14.7625 18.7979 14.7475 19.3635L14.6233 24.0434L19.5159 24.0448C20.0575 24.0448 20.5798 23.8665 20.9953 23.5444L21.1665 23.3976L30.7511 14.3291ZM18.9367 3.22668C19.6173 3.22668 20.169 3.74867 20.169 4.39258C20.169 4.98283 19.7054 5.47063 19.1039 5.54783L18.9367 5.55847H12.7935C8.65061 5.55847 5.96714 8.15875 5.81287 12.1968L5.80584 12.5678V25.4922C5.80584 29.6219 8.35883 32.3382 12.4202 32.4944L12.7935 32.5016H27.2914C31.4446 32.5016 34.1199 29.9069 34.2737 25.8637L34.2807 25.4922V19.2305C34.2807 18.5866 34.8324 18.0647 35.513 18.0647C36.1368 18.0647 36.6524 18.5033 36.734 19.0723L36.7452 19.2305V25.4922C36.7452 30.8741 33.142 34.6582 27.6758 34.8274L27.2914 34.8333H12.7935C7.24287 34.8333 3.5138 31.1713 3.34716 25.865L3.34134 25.4922V12.5678C3.34134 7.19118 6.95375 3.40206 12.4099 3.23261L12.7935 3.22668H18.9367Z" fill="white"/>
</g>
</g>
</svg>
