<svg width="64" height="64" viewBox="0 0 64 64" fill="none" xmlns="http://www.w3.org/2000/svg">
<g id="Iconly/Light-outline/Paper">
<g id="Paper">
<path id="Paper_2" fill-rule="evenodd" clip-rule="evenodd" d="M38.6185 0.0311809C38.5037 0.0106921 38.3855 0 38.2648 0C38.1441 0 38.0259 0.0106921 37.9111 0.0311809H21.224C14.5912 0.0311809 9 5.41206 9 11.9752V40.5432C9 47.478 14.3456 52.9725 21.224 52.9725H42.528C49.0701 52.9725 54.472 47.2074 54.472 40.5432V16.1005C54.472 15.5842 54.2723 15.0879 53.9148 14.7154L40.4081 0.646112C40.031 0.253255 39.5099 0.0311809 38.9653 0.0311809H38.6185ZM36.2648 4.02907L21.224 4.03121C16.7668 4.03121 13 7.65627 13 11.9752V40.5432C13 45.2931 16.5797 48.9725 21.224 48.9725H42.528C46.8007 48.9725 50.472 45.0544 50.472 40.5432L50.4703 18.6216L48.1356 18.6295C47.2459 18.6284 46.2339 18.6266 45.1086 18.624C40.3898 18.614 36.5388 14.9154 36.2788 10.2597L36.2648 9.75733V4.02907ZM48.2814 14.6236L45.1174 14.624C42.4361 14.6183 40.2648 12.4412 40.2648 9.75733V6.2732L48.2814 14.6236ZM37.7581 34.1536C38.8627 34.1536 39.7581 35.049 39.7581 36.1536C39.7581 37.1661 39.0057 38.0029 38.0295 38.1353L37.7581 38.1536H23.3661C22.2616 38.1536 21.3661 37.2581 21.3661 36.1536C21.3661 35.1411 22.1185 34.3043 23.0947 34.1718L23.3661 34.1536H37.7581ZM34.3141 22.9477C34.3141 21.8432 33.4187 20.9477 32.3141 20.9477H23.3648L23.0934 20.966C22.1172 21.0984 21.3648 21.9352 21.3648 22.9477C21.3648 24.0523 22.2602 24.9477 23.3648 24.9477H32.3141L32.5855 24.9295C33.5617 24.7971 34.3141 23.9603 34.3141 22.9477Z" fill="#2784FF"/>
</g>
</g>
</svg>
