<svg width="59" height="51" viewBox="0 0 59 51" fill="none" xmlns="http://www.w3.org/2000/svg">
<g id="Iconly/Light-outline/Plus">
<g id="Plus">
<path id="Plus_2" fill-rule="evenodd" clip-rule="evenodd" d="M40.2154 4.25H18.7846C10.4623 4.25 4.91663 9.39229 4.91663 16.773V34.227C4.91663 41.6146 10.4477 46.75 18.7846 46.75H40.2154C48.5522 46.75 54.0833 41.6146 54.0833 34.227V16.773C54.0833 9.38539 48.5522 4.25 40.2154 4.25ZM18.7846 7.21512H40.2154C46.6008 7.21512 50.6531 10.9775 50.6531 16.773V34.227C50.6531 40.0225 46.6008 43.7849 40.2154 43.7849H18.7846C12.3991 43.7849 8.34686 40.0225 8.34686 34.227V16.773C8.34686 10.9852 12.4126 7.21512 18.7846 7.21512ZM29.5 16.7575C30.3683 16.7575 31.0859 17.3152 31.1994 18.0389L31.2151 18.24V23.9986H37.8849C38.8322 23.9986 39.6001 24.6624 39.6001 25.4812C39.6001 26.2318 38.9548 26.8521 38.1177 26.9502L37.8849 26.9638H31.2151V32.7224C31.2151 33.5412 30.4472 34.2049 29.5 34.2049C28.6317 34.2049 27.9141 33.6472 27.8005 32.9235L27.7849 32.7224V26.9638H21.1149C20.1677 26.9638 19.3998 26.3 19.3998 25.4812C19.3998 24.7306 20.045 24.1104 20.8822 24.0122L21.1149 23.9986H27.7849V18.24C27.7849 17.4212 28.5527 16.7575 29.5 16.7575Z" fill="white"/>
</g>
</g>
</svg>
